<?xml version="1.0" encoding="utf-8"?>
<!-- Generator: Adobe Illustrator 26.0.3, SVG Export Plug-In . SVG Version: 6.00 Build 0)  -->
<svg version="1.1" id="Layer_1" xmlns="http://www.w3.org/2000/svg" xmlns:xlink="http://www.w3.org/1999/xlink" x="0px" y="0px"
	 viewBox="0 0 64 64" style="enable-background:new 0 0 64 64;" xml:space="preserve">
<style type="text/css">
	.st0{fill:#FFFFFF;}
</style>
<g id="Mail">
	<path class="st0" d="M56.8,7.6H7.2c-4,0-7.2,3.2-7.2,7.2v34.4c0,4,3.2,7.2,7.2,7.2h49.7c4,0,7.2-3.2,7.2-7.2V14.8
		C64,10.9,60.8,7.6,56.8,7.6z M7.2,12.4h49.7c1.3,0,2.4,1.1,2.4,2.4v0.9L33.6,32c-0.9,0.6-2.1,0.6-3.1,0L4.8,14.5
		C4.9,13.3,5.9,12.4,7.2,12.4z M59.2,44.9L44.9,30.5l14.4-9.2V44.9z M4.8,20.3l14.7,10L4.8,44.9V20.3z M56.8,51.6H7.2
		c-0.6,0-1.2-0.3-1.7-0.7l17.9-17.9l4.4,3c2.5,1.7,5.8,1.7,8.3,0.1l4.6-2.9l17.8,17.8C58.1,51.3,57.5,51.6,56.8,51.6z"/>
</g>
<path class="st0" d="M62,59.9H2c-1.1,0-2,0.9-2,2v0c0,1.1,0.9,2,2,2H62c1.1,0,2-0.9,2-2v0C64,60.8,63.1,59.9,62,59.9z"/>
<path class="st0" d="M62,0H2C0.9,0,0,0.9,0,2v0c0,1.1,0.9,2,2,2H62c1.1,0,2-0.9,2-2v0C64,0.9,63.1,0,62,0z"/>
</svg>
