<?xml version="1.0" encoding="utf-8"?>
<!-- Generator: Adobe Illustrator 26.0.3, SVG Export Plug-In . SVG Version: 6.00 Build 0)  -->
<svg version="1.1" id="Layer_1" xmlns="http://www.w3.org/2000/svg" xmlns:xlink="http://www.w3.org/1999/xlink" x="0px" y="0px"
	 viewBox="0 0 26.7 26.7" style="enable-background:new 0 0 26.7 26.7;" xml:space="preserve">
<style type="text/css">
	.st0{fill:#FFFFFF;}
</style>
<g>
	<g>
		<path class="st0" d="M20.4,4.8c-0.9,0-1.6,0.7-1.6,1.6c0,0.9,0.7,1.6,1.6,1.6c0.9,0,1.6-0.7,1.6-1.6C22,5.5,21.3,4.8,20.4,4.8z"/>
		<path class="st0" d="M13.4,6.8c-3.6,0-6.6,2.9-6.6,6.6c0,3.6,2.9,6.6,6.6,6.6c3.6,0,6.6-2.9,6.6-6.6C20,9.7,17.1,6.8,13.4,6.8z
			 M13.4,17.5c-2.3,0-4.2-1.9-4.2-4.2s1.9-4.2,4.2-4.2c2.3,0,4.2,1.9,4.2,4.2S15.8,17.5,13.4,17.5z"/>
		<path class="st0" d="M18.7,26.7H8c-4.4,0-8-3.6-8-8V8c0-4.4,3.6-8,8-8h10.6c4.4,0,8,3.6,8,8v10.6C26.7,23.1,23.1,26.7,18.7,26.7z
			 M8,2.5C5,2.5,2.5,5,2.5,8v10.6c0,3,2.5,5.5,5.5,5.5h10.6c3,0,5.5-2.5,5.5-5.5V8c0-3-2.5-5.5-5.5-5.5H8z"/>
	</g>
</g>
</svg>
